<?xml version="1.0" encoding="UTF-8" standalone="no"?>
<svg
   width="22"
   height="20"
   version="1.1"
   id="svg4"
   sodipodi:docname="icon-cart.svg"
   inkscape:version="1.2 (dc2aedaf03, 2022-05-15)"
   xmlns:inkscape="http://www.inkscape.org/namespaces/inkscape"
   xmlns:sodipodi="http://sodipodi.sourceforge.net/DTD/sodipodi-0.dtd"
   xmlns="http://www.w3.org/2000/svg"
   xmlns:svg="http://www.w3.org/2000/svg">
  <defs
     id="defs8" />
  <sodipodi:namedview
     id="namedview6"
     pagecolor="#ffffff"
     bordercolor="#666666"
     borderopacity="1.0"
     inkscape:showpageshadow="2"
     inkscape:pageopacity="0.0"
     inkscape:pagecheckerboard="0"
     inkscape:deskcolor="#d1d1d1"
     showgrid="false"
     inkscape:zoom="38.8"
     inkscape:cx="8.621134"
     inkscape:cy="10"
     inkscape:window-width="1920"
     inkscape:window-height="974"
     inkscape:window-x="-11"
     inkscape:window-y="-11"
     inkscape:window-maximized="1"
     inkscape:current-layer="svg4" />
  <path
     d="M20.925 3.641H3.863L3.61.816A.896.896 0 0 0 2.717 0H.897a.896.896 0 1 0 0 1.792h1l1.031 11.483c.073.828.52 1.726 1.291 2.336C2.83 17.385 4.099 20 6.359 20c1.875 0 3.197-1.87 2.554-3.642h4.905c-.642 1.77.677 3.642 2.555 3.642a2.72 2.72 0 0 0 2.717-2.717 2.72 2.72 0 0 0-2.717-2.717H6.365c-.681 0-1.274-.41-1.53-1.009l14.321-.842a.896.896 0 0 0 .817-.677l1.821-7.283a.897.897 0 0 0-.87-1.114ZM6.358 18.208a.926.926 0 0 1 0-1.85.926.926 0 0 1 0 1.85Zm10.015 0a.926.926 0 0 1 0-1.85.926.926 0 0 1 0 1.85Zm2.021-7.243-13.8.81-.57-6.341h15.753l-1.383 5.53Z"
     fill="#69707D"
     fill-rule="nonzero"
     id="path2"
     style="fill:#ffffff" />
</svg>
