<svg xmlns="http://www.w3.org/2000/svg" id="Layer_1" data-name="Layer 1" viewBox="0 0 971.83 112.85"><defs><style>.cls-1{fill:#231f20;}.cls-2{fill:#ee4223;}</style></defs><path class="cls-1" d="M11.54,13.29H46.75c20.73,0,37.73,7.2,37.73,30.44,0,22.47-17,32.14-37.73,32.14H33.64v35.18H11.54ZM45,58.32c11.62,0,17.87-5,17.87-14.59S56.57,30.84,45,30.84H33.64V58.32ZM42.71,70,58,55.9l31.2,55.15H64.46Z"></path><path class="cls-1" d="M95.83,73.87c0-24.14,17.22-39,35.1-39,21.2,0,31.7,15.41,31.7,35.72a50,50,0,0,1-.92,9.74H117.19c2,10.8,9.37,15.75,19.3,15.75,5.63,0,10.69-1.71,16.09-4.87l7.29,13.3a48.48,48.48,0,0,1-26.4,8.38C112.26,112.85,95.83,98.5,95.83,73.87Zm48-8.16c0-8.18-3.56-14.07-12.36-14.07-7,0-13,4.67-14.49,14.07Z"></path><path class="cls-1" d="M179.33,84V53.93H169.17V37.48l11.4-.85,2.58-19.76h18.23V36.63h17.84v17.3H201.38v29.8c0,8.43,3.83,11.82,9.64,11.82a22.26,22.26,0,0,0,7.07-1.41l3.48,16a52.55,52.55,0,0,1-16.54,2.7C186.64,112.85,179.33,101.24,179.33,84Z"></path><path class="cls-1" d="M232.09,14.22c0-6.76,5.37-11.52,12.76-11.52s12.76,4.76,12.76,11.52-5.36,11.53-12.76,11.53S232.09,20.93,232.09,14.22Zm1.71,22.41h22v74.42h-22Z"></path><path class="cls-1" d="M275.2,36.63h18l1.59,9.42h.54c6.27-6,13.77-11.22,23.91-11.22,16.19,0,23.09,11.42,23.09,30v46.2H320.27V67.68c0-10.71-2.88-14.07-9.25-14.07-5.53,0-8.92,2.58-13.77,7.24v50.2H275.2Z"></path><path class="cls-1" d="M357.58,90.41c0-15.68,12.47-24.17,41.9-27.27-.44-6.51-3.69-10.76-11.76-10.76-6.25,0-12.48,2.63-19.7,6.72l-7.83-14.47c9.44-5.78,20.08-9.8,31.78-9.8,19,0,29.56,10.87,29.56,33.68v42.54h-18L402,103.43h-.54c-6.27,5.5-13.29,9.42-21.65,9.42C366.19,112.85,357.58,103,357.58,90.41Zm41.9-1v-13c-15.68,2.12-20.79,6.6-20.79,12.22,0,4.8,3.3,7.15,8.54,7.15C392.22,95.8,395.57,93.33,399.48,89.43Z"></path><path class="cls-2" d="M441.88,13.29h33.59c21.51,0,38.86,7.69,38.86,31.45,0,23-17.55,33.14-38.26,33.14H464v33.17h-22.1Zm32.88,47c12.16,0,17.91-5.42,17.91-15.59s-6.55-13.9-18.51-13.9H464V60.33Z"></path><path class="cls-2" d="M527.73,14.22c0-6.76,5.37-11.52,12.77-11.52s12.76,4.76,12.76,11.52-5.37,11.53-12.76,11.53S527.73,20.93,527.73,14.22Zm1.72,22.41h22v74.42h-22Z"></path><path class="cls-2" d="M586.11,72.31,564.6,36.63h23.64l6.61,12c2,4.15,4.24,8.54,6.32,12.69h.6c1.59-4.15,3.49-8.54,5.08-12.69l5.08-12h22.84L613.26,74.84l22.87,36.21H612.49l-7.32-12.3c-2.33-4.25-4.59-8.75-7-13h-.6c-1.89,4.2-3.84,8.58-5.73,13l-5.79,12.3H563.24Z"></path><path class="cls-2" d="M645.05,99c0-7.85,5.67-13.91,13.31-13.91S671.67,91.14,671.67,99s-5.67,13.86-13.31,13.86S645.05,106.79,645.05,99Z"></path><path d="M716,101.4l3.27-3.49a28.51,28.51,0,0,0,21.37,9.85c11.11,0,18.12-6,18.12-14.64,0-9.09-5.93-12-13.11-15.21l-11-5c-6.35-2.8-14.78-7.33-14.78-18.11,0-10.58,9.06-18,21.17-18a27.84,27.84,0,0,1,20.29,8.72L758.33,49A23.2,23.2,0,0,0,741,41.52c-9.61,0-16.06,5.14-16.06,13,0,8.49,7.27,11.7,12.59,14l11,4.92c8.16,3.64,15.33,8.13,15.33,19.27s-9.17,19.6-23.3,19.6A32,32,0,0,1,716,101.4Z"></path><path d="M777.51,96.4V62.25h-8.28v-3.8l8.39-.47.62-15.36h4.16V58h15.38v4.27H782.4V96.76c0,6.77,1.7,11.35,9,11.35a19.23,19.23,0,0,0,6.65-1.68l1.28,4a30.6,30.6,0,0,1-8.66,2C780.5,112.37,777.51,105.9,777.51,96.4Z"></path><path d="M805.07,84.62c0-17.75,11.08-28,23.83-28s23.82,10.21,23.82,28c0,17.54-11.07,27.75-23.82,27.75S805.07,102.16,805.07,84.62Zm42.53,0c0-14-8-23.65-18.7-23.65s-18.7,9.68-18.7,23.65,8,23.45,18.7,23.45S847.6,98.58,847.6,84.62Z"></path><path d="M868.65,58h4.14l.53,9.91h.24c3.59-6.52,8.79-11.23,15.1-11.23a11.12,11.12,0,0,1,5.26,1.1l-1.11,4.42A11.87,11.87,0,0,0,888,61.3c-4.78,0-10.44,3.62-14.48,13.66v36.09h-4.89Z"></path><path d="M898.11,84.62c0-17.31,11.25-28,23.14-28,12.58,0,20.31,9,20.31,24.55a23.16,23.16,0,0,1-.27,4H903.13c.18,13.39,8,23,20,23a24,24,0,0,0,14.26-4.7l2,3.71c-4.18,2.61-9,5.21-16.74,5.21C909.1,112.37,898.11,102,898.11,84.62ZM937,81.17c0-13.55-6.15-20.29-15.67-20.29-9,0-17.09,7.6-18.19,20.29Z"></path><path d="M953.18,107.45a4.7,4.7,0,1,1,9.37,0,4.69,4.69,0,1,1-9.37,0Z"></path></svg>